<?xml version="1.0" encoding="UTF-8"?>
<!DOCTYPE svg PUBLIC "-//W3C//DTD SVG 1.1//EN" "http://www.w3.org/Graphics/SVG/1.1/DTD/svg11.dtd">
<!-- Creator: CorelDRAW 2020 (64-Bit) -->
<svg xmlns="http://www.w3.org/2000/svg" xml:space="preserve" width="10.0716mm" height="9.4753mm" version="1.1" style="shape-rendering:geometricPrecision; text-rendering:geometricPrecision; image-rendering:optimizeQuality; fill-rule:evenodd; clip-rule:evenodd"
viewBox="0 0 1007.16 947.53"
 xmlns:xlink="http://www.w3.org/1999/xlink"
 xmlns:xodm="http://www.corel.com/coreldraw/odm/2003">
 <defs>
  <style type="text/css">
   <![CDATA[
    .fil1 {fill:#006834}
    .fil0 {fill:#88BD2F}
   ]]>
  </style>
 </defs>
 <g id="Слой_x0020_1">
  <metadata id="CorelCorpID_0Corel-Layer"/>
  <g id="ЛОГОТИП.cdr">
   <path class="fil0" d="M588.44 518.58c-8.81,119.16 -6.88,293.77 -4.22,418.01 -63.65,13.43 -125.92,15.69 -185.93,0 -3.32,-139.29 -6.07,-331.28 5.86,-461.99 7.54,-82.43 22.99,-160.14 53.6,-228.82 64.81,-145.47 172.01,-217.99 326.64,-238.18 10.83,62.7 16.72,127.05 14.18,186.8 -172.62,32.81 -198.64,168.83 -210.13,324.18z"/>
   <path class="fil1" d="M636.49 691.83c342.58,-88.92 398.2,-382.66 360.46,-687.81 -50.4,-5.34 -103.6,-5.11 -160.61,-0.78 28.31,222.38 23.83,439.42 -198.14,520.19 -2.46,52.22 -6.27,115.84 -1.71,168.4zm-284.32 -184.25l0 178.13c-318.15,-75 -368.46,-399.18 -348.27,-679.46 164.76,-5.17 330.07,-6.73 448.88,131.34 -28.9,45.95 -55.24,108.04 -68.85,160.49 -4.04,15.57 -2.83,14.64 -12.27,2.02 -53.17,-71.13 -129.5,-123.61 -211.75,-132.04 3.78,142.44 49.79,274.94 192.26,339.52z"/>
  </g>
 </g>
</svg>
